HIERARCHY
ROOT hip
{
  OFFSET 0 0 0
  CHANNELS 6 Xposition Yposition Zposition Zrotation Yrotation Xrotation
  JOINT abdomen
  {
    OFFSET 0 20.6881 -0.73152
    CHANNELS 3 Zrotation Xrotation Yrotation
    JOINT chest
    {
      OFFSET 0 11.7043 -0.48768
      CHANNELS 3 Zrotation Xrotation Yrotation
      JOINT neck
      {
        OFFSET 0 22.1894 -2.19456
        CHANNELS 3 Zrotation Xrotation Yrotation
        JOINT head
        {
          OFFSET -0.24384 7.07133 1.2192
          CHANNELS 3 Zrotation Xrotation Yrotation
          JOINT leftEye
          {
            OFFSET 4.14528 8.04674 8.04672
            CHANNELS 3 Zrotation Xrotation Yrotation
            End Site
            {
              OFFSET 1 0 0
            }
          }
          JOINT rightEye
          {
            OFFSET -3.6576 8.04674 8.04672
            CHANNELS 3 Zrotation Xrotation Yrotation
            End Site
            {
              OFFSET 1 0 0
            }
          }
        }
      }
      JOINT rCollar
      {
        OFFSET -2.68224 19.2634 -4.8768
        CHANNELS 3 Zrotation Xrotation Yrotation
        JOINT rShldr
        {
          OFFSET -8.77824 -1.95073 1.46304
          CHANNELS 3 Zrotation Xrotation Yrotation
          JOINT rForeArm
          {
            OFFSET -28.1742 -1.7115 0.48768
            CHANNELS 3 Zrotation Xrotation Yrotation
            JOINT rHand
            {
              OFFSET -22.5879 0.773209 7.07136
              CHANNELS 3 Zrotation Xrotation Yrotation
              JOINT rThumb1
              {
                OFFSET -1.2192 -0.487915 3.41376
                CHANNELS 3 Zrotation Xrotation Yrotation
                JOINT rThumb2
                {
                  OFFSET -3.37035 -0.52449 3.41376
                  CHANNELS 3 Zrotation Xrotation Yrotation
                  End Site
                  {
                    OFFSET -1.78271 -1.18214 1.43049
                  }
                }
              }
              JOINT rIndex1
              {
                OFFSET -7.75947 0.938293 5.60832
                CHANNELS 3 Zrotation Xrotation Yrotation
                JOINT rIndex2
                {
                  OFFSET -2.54057 -0.884171 1.56538
                  CHANNELS 3 Zrotation Xrotation Yrotation
                  End Site
                  {
                    OFFSET -1.62519 -0.234802 1.16502
                  }
                }
              }
              JOINT rMid1
              {
                OFFSET -8.24714 1.18213 3.41376
                CHANNELS 3 Zrotation Xrotation Yrotation
                JOINT rMid2
                {
                  OFFSET -3.10165 -0.590103 1.0647
                  CHANNELS 3 Zrotation Xrotation Yrotation
                  End Site
                  {
                    OFFSET -2.48547 -0.328903 0.83742
                  }
                }
              }
              JOINT rRing1
              {
                OFFSET -8.82822 0.546677 1.51678
                CHANNELS 3 Zrotation Xrotation Yrotation
                JOINT rRing2
                {
                  OFFSET -2.60934 -0.819778 -0.0198488
                  CHANNELS 3 Zrotation Xrotation Yrotation
                  End Site
                  {
                    OFFSET -2.33842 -0.294052 0.168128
                  }
                }
              }
              JOINT rPinky1
              {
                OFFSET -8.27202 -0.0477905 -0.4584
                CHANNELS 3 Zrotation Xrotation Yrotation
                JOINT rPinky2
                {
                  OFFSET -1.82734 -0.647385 -0.700984
                  CHANNELS 3 Zrotation Xrotation Yrotation
                  End Site
                  {
                    OFFSET -1.69225 -0.51767 -0.607171
                  }
                }
              }
            }
          }
        }
      }
      JOINT lCollar
      {
        OFFSET 2.68224 19.2634 -4.8768
        CHANNELS 3 Zrotation Xrotation Yrotation
        JOINT lShldr
        {
          OFFSET 8.77824 -1.95073 1.46304
          CHANNELS 3 Zrotation Xrotation Yrotation
          JOINT lForeArm
          {
            OFFSET 28.1742 -1.7115 0.48768
            CHANNELS 3 Zrotation Xrotation Yrotation
            JOINT lHand
            {
              OFFSET 22.5879 0.773209 7.07136
              CHANNELS 3 Zrotation Xrotation Yrotation
              JOINT lThumb1
              {
                OFFSET 1.2192 -0.487915 3.41376
                CHANNELS 3 Zrotation Xrotation Yrotation
                JOINT lThumb2
                {
                  OFFSET 3.37035 -0.52449 3.41376
                  CHANNELS 3 Zrotation Xrotation Yrotation
                  End Site
                  {
                    OFFSET 1.78271 -1.18214 1.43049
                  }
                }
              }
              JOINT lIndex1
              {
                OFFSET 7.75947 0.938293 5.60832
                CHANNELS 3 Zrotation Xrotation Yrotation
                JOINT lIndex2
                {
                  OFFSET 2.54057 -0.884171 1.56538
                  CHANNELS 3 Zrotation Xrotation Yrotation
                  End Site
                  {
                    OFFSET 1.62519 -0.234802 1.16502
                  }
                }
              }
              JOINT lMid1
              {
                OFFSET 8.24714 1.18213 3.41376
                CHANNELS 3 Zrotation Xrotation Yrotation
                JOINT lMid2
                {
                  OFFSET 3.10165 -0.590103 1.0647
                  CHANNELS 3 Zrotation Xrotation Yrotation
                  End Site
                  {
                    OFFSET 2.48547 -0.328903 0.83742
                  }
                }
              }
              JOINT lRing1
              {
                OFFSET 8.82822 0.546677 1.51678
                CHANNELS 3 Zrotation Xrotation Yrotation
                JOINT lRing2
                {
                  OFFSET 2.60934 -0.819778 -0.0198488
                  CHANNELS 3 Zrotation Xrotation Yrotation
                  End Site
                  {
                    OFFSET 2.33842 -0.294052 0.168128
                  }
                }
              }
              JOINT lPinky1
              {
                OFFSET 8.27202 -0.0477905 -0.4584
                CHANNELS 3 Zrotation Xrotation Yrotation
                JOINT lPinky2
                {
                  OFFSET 1.82734 -0.647385 -0.700984
                  CHANNELS 3 Zrotation Xrotation Yrotation
                  End Site
                  {
                    OFFSET 1.69225 -0.51767 -0.607171
                  }
                }
              }
            }
          }
        }
      }
    }
  }
  JOINT rButtock
  {
    OFFSET -8.77824 4.35084 1.2192
    CHANNELS 3 Zrotation Xrotation Yrotation
    JOINT rThigh
    {
      OFFSET 0 -1.70687 -2.19456
      CHANNELS 3 Zrotation Xrotation Yrotation
      JOINT rShin
      {
        OFFSET 0 -36.8199 0.73152
        CHANNELS 3 Zrotation Xrotation Yrotation
        JOINT rFoot
        {
          OFFSET 0.73152 -45.1104 -5.12064
          CHANNELS 3 Zrotation Xrotation Yrotation
          End Site
          {
            OFFSET -1.1221 -3.69964 12.103
          }
        }
      }
    }
  }
  JOINT lButtock
  {
    OFFSET 8.77824 4.35084 1.2192
    CHANNELS 3 Zrotation Xrotation Yrotation
    JOINT lThigh
    {
      OFFSET 0 -1.70687 -2.19456
      CHANNELS 3 Zrotation Xrotation Yrotation
      JOINT lShin
      {
        OFFSET 0 -36.8199 0.73152
        CHANNELS 3 Zrotation Xrotation Yrotation
        JOINT lFoot
        {
          OFFSET -0.73152 -45.1104 -5.12064
          CHANNELS 3 Zrotation Xrotation Yrotation
          End Site
          {
            OFFSET 1.1221 -3.69964 12.103
          }
        }
      }
    }
  }
}
MOTION
Frames:	6
Frame Time:	0.00833333
1.25235 82.6255 -95.5818 -180.046 -183.882 177.626 -3.01279 10.1074 2.76374 4.30512 -4.24514 0.787952 -15.472 0.194174 -4.64901 12.4014 10.8442 -6.00847 -0.0 0.0 0.0 -0.0 0.0 0.0 2.91597e-14 -6.32237e-14 -2.59007e-13 76.5039 25.5815 6.07848 -16.9495 -9.59978 31.7052 -0.00325081 -1.61592 -0.227165 1.06317e-09 -2.32599e-09 -5.70208e-10 1.84093e-09 -4.02629e-09 -9.89324e-10 1.06317e-09 -2.32599e-09 -5.70221e-10 7.73091 5.47488 0.417314 1.06317e-09 -2.32599e-09 -5.7021e-10 2.90554 0.965183 0.102902 1.06317e-09 -2.32599e-09 -5.70207e-10 10.2786 0.731801 0.0259123 1.06315e-09 -2.32598e-09 -5.70201e-10 2.22167 -0.733487 -0.20892 2.90578e-14 -6.32229e-14 -2.59062e-13 -85.8319 17.1932 5.22348 11.78 -5.29579 -21.1844 0.0614386 7.07091 -0.998843 5.64727e-10 1.92769e-09 -1.2924e-09 9.67327e-10 3.33279e-09 -2.23948e-09 5.64724e-10 1.92769e-09 -1.29239e-09 -7.73091 5.47488 -0.417314 5.6473e-10 1.92769e-09 -1.29239e-09 -2.90554 0.965183 -0.102902 5.6472e-10 1.92769e-09 -1.29239e-09 -10.2786 0.731801 -0.0259123 5.64737e-10 1.92769e-09 -1.29239e-09 -2.22167 -0.733487 0.20892 -2.03217e-16 0.0 -3.88251e-19 -0.915274 -10.2336 -0.599693 -0.221979 33.193 0.617533 -2.81728 -16.2948 -6.50934 2.03217e-16 0.0 3.88251e-19 -0.23596 -9.39299 2.15511 0.158297 31.5698 -0.467524 -1.72673 -14.7225 -7.06812
1.27158 82.6534 -95.5035 -180.053 -184.117 177.581 -2.97684 10.0247 2.77349 4.25434 -4.33729 0.793254 -15.5444 0.197128 -4.72233 12.512 11.0407 -6.16219 -0.0 0.0 0.0 -0.0 0.0 0.0 3.37393e-14 -7.87191e-14 -2.91766e-13 76.5829 25.9911 6.00397 -17.0579 -9.70853 31.9395 -0.00369774 -1.73603 -0.244059 9.46563e-10 -2.03088e-09 -5.62996e-10 1.63901e-09 -3.51513e-09 -9.76186e-10 9.46568e-10 -2.03088e-09 -5.63012e-10 7.73091 5.47488 0.417314 9.46563e-10 -2.03088e-09 -5.63e-10 2.90554 0.965183 0.102902 9.46565e-10 -2.03088e-09 -5.62996e-10 10.2786 0.731801 0.0259123 9.46546e-10 -2.03088e-09 -5.6299e-10 2.22167 -0.733487 -0.20892 3.36012e-14 -7.87195e-14 -2.91816e-13 -85.6974 16.8403 5.09578 11.7291 -5.26044 -21.0868 0.0654911 7.28254 -1.0291 4.58006e-10 2.15534e-09 -1.41773e-09 7.81599e-10 3.72675e-09 -2.45582e-09 4.58003e-10 2.15533e-09 -1.41772e-09 -7.73091 5.47488 -0.417314 4.58008e-10 2.15533e-09 -1.41772e-09 -2.90554 0.965183 -0.102902 4.58e-10 2.15533e-09 -1.41772e-09 -10.2786 0.731801 -0.0259123 4.58017e-10 2.15534e-09 -1.41772e-09 -2.22167 -0.733487 0.20892 -2.03217e-16 0.0 -3.88251e-19 -0.874539 -9.99498 -0.729431 -0.219308 32.9874 0.613496 -2.82202 -16.3075 -6.52257 2.03217e-16 0.0 3.88251e-19 -0.208454 -9.33048 1.9713 0.15729 31.4951 -0.463821 -1.75688 -14.6806 -7.17915
1.26221 82.6818 -95.4002 -180.129 -184.119 177.491 -2.94636 9.90806 2.85577 4.21423 -4.39003 0.818144 -15.6389 0.236217 -4.79648 12.5721 11.1439 -6.30662 -0.0 0.0 0.0 -0.0 0.0 0.0 3.37475e-14 -7.50534e-14 -2.66113e-13 76.6427 26.5269 5.85742 -17.1927 -9.84483 32.2318 -0.00444124 -1.92151 -0.270149 7.6025e-10 -1.68235e-09 -5.32335e-10 1.31695e-09 -2.9125e-09 -9.2285e-10 7.60256e-10 -1.68235e-09 -5.32352e-10 7.73091 5.47488 0.417314 7.6025e-10 -1.68235e-09 -5.32339e-10 2.90554 0.965183 0.102902 7.60252e-10 -1.68235e-09 -5.32335e-10 10.2786 0.731801 0.0259123 7.60233e-10 -1.68235e-09 -5.32328e-10 2.22167 -0.733487 -0.20892 3.36299e-14 -7.50548e-14 -2.66196e-13 -85.6522 16.4796 5.06823 11.7392 -5.26726 -21.1065 0.0664639 7.3235 -1.03498 3.137e-10 1.95115e-09 -1.49862e-09 5.3157e-10 3.37332e-09 -2.59476e-09 3.13697e-10 1.95115e-09 -1.49861e-09 -7.73091 5.47488 -0.417314 3.13702e-10 1.95115e-09 -1.49861e-09 -2.90554 0.965183 -0.102902 3.13693e-10 1.95115e-09 -1.49861e-09 -10.2786 0.731801 -0.0259123 3.13709e-10 1.95115e-09 -1.49861e-09 -2.22167 -0.733487 0.20892 -2.03217e-16 0.0 -3.88251e-19 -0.842745 -9.81625 -0.762654 -0.217144 32.8274 0.61106 -2.85454 -16.249 -6.62966 2.03217e-16 0.0 3.88251e-19 -0.213842 -9.23068 1.82449 0.156347 31.4365 -0.462319 -1.74391 -14.6706 -7.14229
1.27377 82.7148 -95.3059 -180.131 -184.142 177.425 -2.91504 9.77283 2.99334 4.18111 -4.42914 0.858654 -15.7441 0.301185 -4.86795 12.5947 11.1896 -6.44014 -0.0 0.0 0.0 -0.0 0.0 0.0 3.09087e-14 -5.9386e-14 -2.02018e-13 76.6923 27.1469 5.65477 -17.3398 -9.99505 32.5529 -0.0055312 -2.1494 -0.302216 4.93872e-10 -1.21803e-09 -4.79639e-10 8.56632e-10 -2.11005e-09 -8.3151e-10 4.9388e-10 -1.21803e-09 -4.79658e-10 7.73091 5.47488 0.417314 4.93873e-10 -1.21803e-09 -4.79645e-10 2.90554 0.965183 0.102902 4.93874e-10 -1.21803e-09 -4.79641e-10 10.2786 0.731801 0.0259123 4.93857e-10 -1.21802e-09 -4.79633e-10 2.22167 -0.733487 -0.20892 3.0844e-14 -5.93882e-14 -2.02161e-13 -85.6687 16.0961 5.11311 11.7905 -5.30258 -21.2053 0.065336 7.25335 -1.02497 1.19125e-10 1.46205e-09 -1.5408e-09 1.95099e-10 2.52684e-09 -2.66628e-09 1.19122e-10 1.46205e-09 -1.54079e-09 -7.73091 5.47488 -0.417314 1.19129e-10 1.46205e-09 -1.54079e-09 -2.90554 0.965183 -0.102902 1.19117e-10 1.46205e-09 -1.54079e-09 -10.2786 0.731801 -0.0259123 1.19131e-10 1.46205e-09 -1.54079e-09 -2.22167 -0.733487 0.20892 -2.03217e-16 0.0 -3.88251e-19 -0.814258 -9.67952 -0.73327 -0.215335 32.6994 0.609718 -2.90113 -16.1658 -6.7819 2.03217e-16 0.0 3.88251e-19 -0.234948 -9.10866 1.70372 0.155455 31.391 -0.46236 -1.70052 -14.6801 -7.0019
1.2832 82.7337 -95.2466 -180.153 -184.193 177.443 -2.88616 9.63238 3.13706 4.14922 -4.45079 0.90027 -15.849 0.366006 -4.9321 12.6369 11.2086 -6.55881 -0.0 0.0 0.0 -0.0 0.0 0.0 2.71979e-14 -4.27496e-14 -1.27709e-13 76.7236 27.8024 5.4703 -17.4669 -10.1255 32.8331 -0.00671663 -2.35447 -0.331084 2.18173e-10 -7.47433e-10 -4.14443e-10 3.80162e-10 -1.29678e-09 -7.18568e-10 2.18183e-10 -7.47436e-10 -4.14462e-10 7.73091 5.47488 0.417314 2.18175e-10 -7.47438e-10 -4.14449e-10 2.90554 0.965183 0.102902 2.18176e-10 -7.47439e-10 -4.14445e-10 10.2786 0.731801 0.0259123 2.18161e-10 -7.47436e-10 -4.14436e-10 2.22167 -0.733487 -0.20892 2.71889e-14 -4.27524e-14 -1.27915e-13 -85.7002 15.7131 5.1747 11.8642 -5.35373 -21.3476 0.0623364 7.08814 -1.00137 -6.14061e-11 9.03627e-10 -1.53784e-09 -1.16656e-10 1.56052e-09 -2.65975e-09 -6.1409e-11 9.03628e-10 -1.53784e-09 -7.73091 5.47488 -0.417314 -6.1402e-11 9.0363e-10 -1.53784e-09 -2.90554 0.965183 -0.102902 -6.14162e-11 9.03629e-10 -1.53783e-09 -10.2786 0.731801 -0.0259123 -6.14039e-11 9.03631e-10 -1.53784e-09 -2.22167 -0.733487 0.20892 -2.03217e-16 0.0 -3.88251e-19 -0.796736 -9.55486 -0.714248 -0.213719 32.5852 0.608544 -2.94173 -16.0792 -6.91961 2.03217e-16 0.0 3.88251e-19 -0.256369 -8.97905 1.59752 0.154566 31.3487 -0.462781 -1.65167 -14.7 -6.84055
1.29525 82.7452 -95.2033 -180.174 -184.256 177.439 -2.86355 9.50015 3.23788 4.11275 -4.45116 0.928478 -15.9429 0.404664 -4.98422 12.7565 11.2317 -6.65877 -0.0 0.0 0.0 -0.0 0.0 0.0 2.45904e-14 -3.61773e-14 -7.14134e-14 76.7241 28.4447 5.3801 -17.5429 -10.2035 33.0027 -0.0074974 -2.4715 -0.347564 3.89618e-12 -3.80103e-10 -3.46277e-10 9.67008e-12 -6.61727e-10 -6.00424e-10 3.90771e-12 -3.80108e-10 -3.46296e-10 7.73091 5.47488 0.417314 3.89881e-12 -3.8011e-10 -3.46283e-10 2.90554 0.965183 0.102902 3.90103e-12 -3.80111e-10 -3.46279e-10 10.2786 0.731801 0.0259123 3.88624e-12 -3.80109e-10 -3.4627e-10 2.22167 -0.733487 -0.20892 2.46104e-14 -3.61798e-14 -7.16619e-14 -85.7014 15.3539 5.19768 11.9421 -5.4081 -21.4978 0.0577935 6.84391 -0.966496 -1.63582e-10 4.91477e-10 -1.48332e-09 -2.92537e-10 8.47554e-10 -2.56458e-09 -1.63585e-10 4.91479e-10 -1.48332e-09 -7.73091 5.47488 -0.417314 -1.63578e-10 4.91481e-10 -1.48332e-09 -2.90554 0.965183 -0.102902 -1.63593e-10 4.9148e-10 -1.48332e-09 -10.2786 0.731801 -0.0259123 -1.63582e-10 4.91481e-10 -1.48332e-09 -2.22167 -0.733487 0.20892 -2.03217e-16 0.0 -3.88251e-19 -0.797147 -9.41235 -0.778444 -0.212151 32.4662 0.606617 -2.95683 -16.0105 -6.98326 2.03217e-16 0.0 3.88251e-19 -0.262735 -8.85644 1.49439 0.153636 31.2996 -0.462426 -1.62244 -14.7214 -6.74081
